<mxfile host="Electron" agent="Mozilla/5.0 (Windows NT 10.0; Win64; x64) AppleWebKit/537.36 (KHTML, like Gecko) draw.io/27.0.5 Chrome/134.0.6998.205 Electron/35.3.0 Safari/537.36" version="27.0.5">
  <diagram name="Page-1" id="BBFbWjCyFKmFQUhyH12j">
    <mxGraphModel dx="1773" dy="669" grid="1" gridSize="10" guides="1" tooltips="1" connect="1" arrows="1" fold="1" page="1" pageScale="1" pageWidth="827" pageHeight="1169" math="0" shadow="0">
      <root>
        <mxCell id="0" />
        <mxCell id="1" parent="0" />
        <mxCell id="gk1ut0RoK6ZsDEM7EaET-45" value="" style="rounded=0;whiteSpace=wrap;html=1;dashed=1;fillColor=#f8cecc;strokeColor=#b85450;" parent="1" vertex="1">
          <mxGeometry x="480" y="80" width="340" height="530" as="geometry" />
        </mxCell>
        <mxCell id="gk1ut0RoK6ZsDEM7EaET-44" value="" style="rounded=0;whiteSpace=wrap;html=1;dashed=1;fillColor=#ffe6cc;strokeColor=#d79b00;" parent="1" vertex="1">
          <mxGeometry x="-160" y="80" width="620" height="530" as="geometry" />
        </mxCell>
        <mxCell id="gk1ut0RoK6ZsDEM7EaET-6" value="&lt;font style=&quot;font-size: 20px;&quot;&gt;crm_prd_info&lt;/font&gt;" style="swimlane;fontStyle=0;childLayout=stackLayout;horizontal=1;startSize=30;horizontalStack=0;resizeParent=1;resizeParentMax=0;resizeLast=0;collapsible=1;marginBottom=0;whiteSpace=wrap;html=1;" parent="1" vertex="1">
          <mxGeometry x="210" y="150" width="190" height="60" as="geometry" />
        </mxCell>
        <mxCell id="gk1ut0RoK6ZsDEM7EaET-7" value="&lt;font style=&quot;font-size: 20px;&quot;&gt;prd_key&lt;/font&gt;" style="text;strokeColor=#666666;fillColor=#f5f5f5;align=left;verticalAlign=middle;spacingLeft=4;spacingRight=4;overflow=hidden;points=[[0,0.5],[1,0.5]];portConstraint=eastwest;rotatable=0;whiteSpace=wrap;html=1;fontColor=#333333;" parent="gk1ut0RoK6ZsDEM7EaET-6" vertex="1">
          <mxGeometry y="30" width="190" height="30" as="geometry" />
        </mxCell>
        <mxCell id="gk1ut0RoK6ZsDEM7EaET-9" value="Histroy and current production information" style="text;html=1;align=center;verticalAlign=middle;whiteSpace=wrap;rounded=0;fontSize=15;" parent="1" vertex="1">
          <mxGeometry x="160" y="120" width="300" height="30" as="geometry" />
        </mxCell>
        <mxCell id="gk1ut0RoK6ZsDEM7EaET-16" value="&lt;font style=&quot;font-size: 20px;&quot;&gt;crm_cust_info&lt;/font&gt;" style="swimlane;fontStyle=0;childLayout=stackLayout;horizontal=1;startSize=30;horizontalStack=0;resizeParent=1;resizeParentMax=0;resizeLast=0;collapsible=1;marginBottom=0;whiteSpace=wrap;html=1;" parent="1" vertex="1">
          <mxGeometry x="210" y="398" width="190" height="90" as="geometry" />
        </mxCell>
        <mxCell id="gk1ut0RoK6ZsDEM7EaET-17" value="&lt;font style=&quot;font-size: 20px;&quot;&gt;cst_id&lt;/font&gt;" style="text;strokeColor=#666666;fillColor=#f5f5f5;align=left;verticalAlign=middle;spacingLeft=4;spacingRight=4;overflow=hidden;points=[[0,0.5],[1,0.5]];portConstraint=eastwest;rotatable=0;whiteSpace=wrap;html=1;fontColor=#333333;" parent="gk1ut0RoK6ZsDEM7EaET-16" vertex="1">
          <mxGeometry y="30" width="190" height="30" as="geometry" />
        </mxCell>
        <mxCell id="C9kzV6BVkYAc1c9wad84-2" value="&lt;font style=&quot;font-size: 20px;&quot;&gt;cst_key&lt;/font&gt;" style="text;strokeColor=#666666;fillColor=#f5f5f5;align=left;verticalAlign=middle;spacingLeft=4;spacingRight=4;overflow=hidden;points=[[0,0.5],[1,0.5]];portConstraint=eastwest;rotatable=0;whiteSpace=wrap;html=1;fontColor=#333333;" vertex="1" parent="gk1ut0RoK6ZsDEM7EaET-16">
          <mxGeometry y="60" width="190" height="30" as="geometry" />
        </mxCell>
        <mxCell id="gk1ut0RoK6ZsDEM7EaET-18" value="Customer Information" style="text;html=1;align=center;verticalAlign=middle;whiteSpace=wrap;rounded=0;fontSize=15;" parent="1" vertex="1">
          <mxGeometry x="160" y="368" width="300" height="30" as="geometry" />
        </mxCell>
        <mxCell id="gk1ut0RoK6ZsDEM7EaET-21" value="&lt;font style=&quot;font-size: 20px;&quot;&gt;crm_sales_detail&lt;/font&gt;" style="swimlane;fontStyle=0;childLayout=stackLayout;horizontal=1;startSize=30;horizontalStack=0;resizeParent=1;resizeParentMax=0;resizeLast=0;collapsible=1;marginBottom=0;whiteSpace=wrap;html=1;" parent="1" vertex="1">
          <mxGeometry x="-121" y="272" width="190" height="90" as="geometry" />
        </mxCell>
        <mxCell id="gk1ut0RoK6ZsDEM7EaET-22" value="&lt;span style=&quot;font-size: 20px;&quot;&gt;sls_prd_key&lt;/span&gt;" style="text;strokeColor=#666666;fillColor=#f5f5f5;align=left;verticalAlign=middle;spacingLeft=4;spacingRight=4;overflow=hidden;points=[[0,0.5],[1,0.5]];portConstraint=eastwest;rotatable=0;whiteSpace=wrap;html=1;fontColor=#333333;" parent="gk1ut0RoK6ZsDEM7EaET-21" vertex="1">
          <mxGeometry y="30" width="190" height="30" as="geometry" />
        </mxCell>
        <mxCell id="gk1ut0RoK6ZsDEM7EaET-24" value="sls_cst_id" style="text;strokeColor=#666666;fillColor=#f5f5f5;align=left;verticalAlign=middle;spacingLeft=4;spacingRight=4;overflow=hidden;points=[[0,0.5],[1,0.5]];portConstraint=eastwest;rotatable=0;whiteSpace=wrap;html=1;fontSize=20;fontColor=#333333;" parent="gk1ut0RoK6ZsDEM7EaET-21" vertex="1">
          <mxGeometry y="60" width="190" height="30" as="geometry" />
        </mxCell>
        <mxCell id="gk1ut0RoK6ZsDEM7EaET-23" value="Transactional detail about Sales" style="text;html=1;align=center;verticalAlign=middle;whiteSpace=wrap;rounded=0;fontSize=15;" parent="1" vertex="1">
          <mxGeometry x="-177" y="234" width="300" height="30" as="geometry" />
        </mxCell>
        <mxCell id="gk1ut0RoK6ZsDEM7EaET-25" style="edgeStyle=orthogonalEdgeStyle;rounded=0;orthogonalLoop=1;jettySize=auto;html=1;entryX=0;entryY=0.5;entryDx=0;entryDy=0;" parent="1" source="gk1ut0RoK6ZsDEM7EaET-22" target="gk1ut0RoK6ZsDEM7EaET-7" edge="1">
          <mxGeometry relative="1" as="geometry" />
        </mxCell>
        <mxCell id="gk1ut0RoK6ZsDEM7EaET-26" style="edgeStyle=orthogonalEdgeStyle;rounded=0;orthogonalLoop=1;jettySize=auto;html=1;entryX=0;entryY=0.5;entryDx=0;entryDy=0;" parent="1" source="gk1ut0RoK6ZsDEM7EaET-24" target="gk1ut0RoK6ZsDEM7EaET-17" edge="1">
          <mxGeometry relative="1" as="geometry" />
        </mxCell>
        <mxCell id="gk1ut0RoK6ZsDEM7EaET-27" value="&lt;font style=&quot;font-size: 20px;&quot;&gt;erp_px_cat_g1v2&lt;/font&gt;" style="swimlane;fontStyle=0;childLayout=stackLayout;horizontal=1;startSize=30;horizontalStack=0;resizeParent=1;resizeParentMax=0;resizeLast=0;collapsible=1;marginBottom=0;whiteSpace=wrap;html=1;fillColor=#f5f5f5;fontColor=#333333;strokeColor=#666666;" parent="1" vertex="1">
          <mxGeometry x="577" y="150" width="190" height="60" as="geometry" />
        </mxCell>
        <mxCell id="gk1ut0RoK6ZsDEM7EaET-28" value="&lt;font style=&quot;font-size: 20px;&quot;&gt;id&lt;/font&gt;" style="text;strokeColor=none;fillColor=none;align=left;verticalAlign=middle;spacingLeft=4;spacingRight=4;overflow=hidden;points=[[0,0.5],[1,0.5]];portConstraint=eastwest;rotatable=0;whiteSpace=wrap;html=1;" parent="gk1ut0RoK6ZsDEM7EaET-27" vertex="1">
          <mxGeometry y="30" width="190" height="30" as="geometry" />
        </mxCell>
        <mxCell id="gk1ut0RoK6ZsDEM7EaET-29" value="product category" style="text;html=1;align=center;verticalAlign=middle;whiteSpace=wrap;rounded=0;fontSize=15;" parent="1" vertex="1">
          <mxGeometry x="527" y="120" width="300" height="30" as="geometry" />
        </mxCell>
        <mxCell id="gk1ut0RoK6ZsDEM7EaET-30" style="edgeStyle=orthogonalEdgeStyle;rounded=0;orthogonalLoop=1;jettySize=auto;html=1;" parent="1" source="gk1ut0RoK6ZsDEM7EaET-7" target="gk1ut0RoK6ZsDEM7EaET-28" edge="1">
          <mxGeometry relative="1" as="geometry" />
        </mxCell>
        <mxCell id="gk1ut0RoK6ZsDEM7EaET-36" value="&lt;font style=&quot;font-size: 20px;&quot;&gt;cust_az12&lt;/font&gt;" style="swimlane;fontStyle=0;childLayout=stackLayout;horizontal=1;startSize=30;horizontalStack=0;resizeParent=1;resizeParentMax=0;resizeLast=0;collapsible=1;marginBottom=0;whiteSpace=wrap;html=1;" parent="1" vertex="1">
          <mxGeometry x="560" y="338" width="190" height="60" as="geometry" />
        </mxCell>
        <mxCell id="gk1ut0RoK6ZsDEM7EaET-37" value="&lt;font style=&quot;font-size: 20px;&quot;&gt;id&lt;/font&gt;" style="text;align=left;verticalAlign=middle;spacingLeft=4;spacingRight=4;overflow=hidden;points=[[0,0.5],[1,0.5]];portConstraint=eastwest;rotatable=0;whiteSpace=wrap;html=1;fillColor=#f5f5f5;fontColor=#333333;strokeColor=#666666;" parent="gk1ut0RoK6ZsDEM7EaET-36" vertex="1">
          <mxGeometry y="30" width="190" height="30" as="geometry" />
        </mxCell>
        <mxCell id="gk1ut0RoK6ZsDEM7EaET-38" value="Extra information for Customers" style="text;html=1;align=center;verticalAlign=middle;whiteSpace=wrap;rounded=0;fontSize=15;" parent="1" vertex="1">
          <mxGeometry x="510" y="308" width="300" height="30" as="geometry" />
        </mxCell>
        <mxCell id="gk1ut0RoK6ZsDEM7EaET-39" value="&lt;span style=&quot;font-size: 15px;&quot;&gt;erp_loc_a101&lt;/span&gt;" style="swimlane;fontStyle=0;childLayout=stackLayout;horizontal=1;startSize=30;horizontalStack=0;resizeParent=1;resizeParentMax=0;resizeLast=0;collapsible=1;marginBottom=0;whiteSpace=wrap;html=1;" parent="1" vertex="1">
          <mxGeometry x="560" y="480" width="190" height="60" as="geometry" />
        </mxCell>
        <mxCell id="gk1ut0RoK6ZsDEM7EaET-40" value="&lt;font style=&quot;font-size: 20px;&quot;&gt;id&lt;/font&gt;" style="text;align=left;verticalAlign=middle;spacingLeft=4;spacingRight=4;overflow=hidden;points=[[0,0.5],[1,0.5]];portConstraint=eastwest;rotatable=0;whiteSpace=wrap;html=1;fillColor=#f5f5f5;fontColor=#333333;strokeColor=#666666;" parent="gk1ut0RoK6ZsDEM7EaET-39" vertex="1">
          <mxGeometry y="30" width="190" height="30" as="geometry" />
        </mxCell>
        <mxCell id="gk1ut0RoK6ZsDEM7EaET-41" value="Location of Customer" style="text;html=1;align=center;verticalAlign=middle;whiteSpace=wrap;rounded=0;fontSize=15;" parent="1" vertex="1">
          <mxGeometry x="510" y="450" width="300" height="30" as="geometry" />
        </mxCell>
        <mxCell id="gk1ut0RoK6ZsDEM7EaET-42" style="edgeStyle=orthogonalEdgeStyle;rounded=0;orthogonalLoop=1;jettySize=auto;html=1;exitX=1;exitY=0.5;exitDx=0;exitDy=0;" parent="1" source="C9kzV6BVkYAc1c9wad84-2" target="gk1ut0RoK6ZsDEM7EaET-37" edge="1">
          <mxGeometry relative="1" as="geometry">
            <Array as="points">
              <mxPoint x="530" y="473" />
              <mxPoint x="530" y="383" />
            </Array>
          </mxGeometry>
        </mxCell>
        <mxCell id="gk1ut0RoK6ZsDEM7EaET-43" style="edgeStyle=orthogonalEdgeStyle;rounded=0;orthogonalLoop=1;jettySize=auto;html=1;exitX=1;exitY=0.5;exitDx=0;exitDy=0;" parent="1" source="C9kzV6BVkYAc1c9wad84-2" target="gk1ut0RoK6ZsDEM7EaET-40" edge="1">
          <mxGeometry relative="1" as="geometry">
            <Array as="points">
              <mxPoint x="530" y="473" />
              <mxPoint x="530" y="525" />
            </Array>
          </mxGeometry>
        </mxCell>
        <mxCell id="gk1ut0RoK6ZsDEM7EaET-46" value="&lt;font style=&quot;font-size: 34px;&quot;&gt;&lt;b&gt;CRM&lt;/b&gt;&lt;/font&gt;" style="rounded=1;whiteSpace=wrap;html=1;" parent="1" vertex="1">
          <mxGeometry y="40" width="270" height="60" as="geometry" />
        </mxCell>
        <mxCell id="gk1ut0RoK6ZsDEM7EaET-47" value="&lt;font style=&quot;font-size: 34px;&quot;&gt;&lt;b&gt;ERP&lt;/b&gt;&lt;/font&gt;" style="rounded=1;whiteSpace=wrap;html=1;" parent="1" vertex="1">
          <mxGeometry x="515" y="40" width="270" height="60" as="geometry" />
        </mxCell>
      </root>
    </mxGraphModel>
  </diagram>
</mxfile>
